<mxfile host="Electron" agent="Mozilla/5.0 (Windows NT 10.0; Win64; x64) AppleWebKit/537.36 (KHTML, like Gecko) draw.io/24.7.5 Chrome/126.0.6478.183 Electron/31.3.0 Safari/537.36" version="24.7.5" pages="2">
  <diagram id="ZnghoZRAUyGX2wOghst_" name="Page-1">
    <mxGraphModel dx="1143" dy="1690" grid="1" gridSize="10" guides="1" tooltips="1" connect="1" arrows="1" fold="1" page="1" pageScale="1" pageWidth="850" pageHeight="1100" math="0" shadow="0">
      <root>
        <mxCell id="0" />
        <mxCell id="1" parent="0" />
        <mxCell id="DY1sFtws5KemHpxD_VUs-1" value="" style="shape=cylinder3;whiteSpace=wrap;html=1;boundedLbl=1;backgroundOutline=1;size=15;" parent="1" vertex="1">
          <mxGeometry x="690" y="280" width="60" height="80" as="geometry" />
        </mxCell>
        <object label="My Database" uri="zzz" tooltip="My tooltip." id="DY1sFtws5KemHpxD_VUs-2">
          <mxCell style="shape=cylinder3;whiteSpace=wrap;html=1;boundedLbl=1;backgroundOutline=1;size=15;movable=1;resizable=1;rotatable=1;deletable=1;editable=1;connectable=1;" parent="1" vertex="1">
            <mxGeometry x="110" y="230" width="60" height="80" as="geometry" />
          </mxCell>
        </object>
        <mxCell id="DY1sFtws5KemHpxD_VUs-3" value="" style="curved=1;endArrow=classic;html=1;rounded=0;" parent="1" source="1AnREogHo7OAvXgXjlUe-3" target="DY1sFtws5KemHpxD_VUs-2" edge="1">
          <mxGeometry width="50" height="50" relative="1" as="geometry">
            <mxPoint x="400" y="540" as="sourcePoint" />
            <mxPoint x="450" y="490" as="targetPoint" />
            <Array as="points">
              <mxPoint x="10" y="200" />
              <mxPoint x="270" y="200" />
            </Array>
          </mxGeometry>
        </mxCell>
        <UserObject label="Link to Linked on linked Page 2" link="data:element/name,links.drawio#name,Page+2/Linked" id="7CIdpfaHuMkykqBY7dj4-1">
          <mxCell style="rounded=1;whiteSpace=wrap;html=1;" parent="1" vertex="1">
            <mxGeometry x="360" y="800" width="120" height="60" as="geometry" />
          </mxCell>
        </UserObject>
        <object label="Layer Two" id="1AnREogHo7OAvXgXjlUe-1">
          <mxCell parent="0" />
        </object>
        <mxCell id="1AnREogHo7OAvXgXjlUe-3" value="Simple Shape" style="rounded=0;whiteSpace=wrap;html=1;" parent="1AnREogHo7OAvXgXjlUe-1" vertex="1">
          <mxGeometry x="100" y="100" width="120" height="60" as="geometry" />
        </mxCell>
        <object label="Layer One" uri="layers://one" id="1AnREogHo7OAvXgXjlUe-2">
          <mxCell parent="0" />
        </object>
        <mxCell id="1AnREogHo7OAvXgXjlUe-4" value="&lt;b&gt;Formatted&lt;br&gt;Text&lt;br&gt;&lt;/b&gt;" style="ellipse;whiteSpace=wrap;html=1;aspect=fixed;shadow=1;" parent="1AnREogHo7OAvXgXjlUe-2" vertex="1">
          <mxGeometry x="590" y="90" width="80" height="80" as="geometry" />
        </mxCell>
      </root>
    </mxGraphModel>
  </diagram>
  <diagram id="S1Rd9NR_AWBY0fI_vBLB" name="Page 2">
    <mxGraphModel dx="1143" dy="1690" grid="1" gridSize="10" guides="1" tooltips="1" connect="1" arrows="1" fold="1" page="1" pageScale="1" pageWidth="850" pageHeight="1100" math="0" shadow="0">
      <root>
        <mxCell id="0" />
        <mxCell id="1" parent="0" />
        <mxCell id="ll3UfSF4uJBQnlfVPVcr-1" value="Database" style="shape=cylinder3;whiteSpace=wrap;html=1;boundedLbl=1;backgroundOutline=1;size=15;shadow=1;" parent="1" vertex="1">
          <mxGeometry x="390" y="480" width="60" height="80" as="geometry" />
        </mxCell>
        <mxCell id="-SEOLJj5ORxnoyrb6d9t-1" value="Linked" style="rounded=1;whiteSpace=wrap;html=1;fontStyle=1" vertex="1" parent="1">
          <mxGeometry x="360" y="620" width="120" height="60" as="geometry" />
        </mxCell>
      </root>
    </mxGraphModel>
  </diagram>
</mxfile>
